<svg width="121" height="61" viewBox="0 0 121 61" fill="none" xmlns="http://www.w3.org/2000/svg">
<rect width="53.3512" height="10" transform="translate(4.12573 50.3244)" fill="white"/>
<path d="M10.0589 54.9163C10.3309 54.9743 10.5494 55.1103 10.7144 55.3243C10.8794 55.5339 10.9619 55.7747 10.9619 56.0467C10.9619 56.4392 10.8237 56.7513 10.5472 56.9832C10.2752 57.2106 9.89392 57.3244 9.40339 57.3244H7.21607V52.6286H9.32981C9.80697 52.6286 10.1793 52.7379 10.4469 52.9564C10.7189 53.1749 10.8549 53.4715 10.8549 53.8461C10.8549 54.1225 10.7813 54.3522 10.6342 54.535C10.4915 54.7179 10.2997 54.8449 10.0589 54.9163ZM8.3599 54.5283H9.10907C9.29637 54.5283 9.43907 54.4882 9.53717 54.4079C9.63974 54.3232 9.69102 54.2006 9.69102 54.04C9.69102 53.8795 9.63974 53.7569 9.53717 53.6721C9.43907 53.5874 9.29637 53.545 9.10907 53.545H8.3599V54.5283ZM9.20272 56.4013C9.39447 56.4013 9.54163 56.3589 9.6442 56.2742C9.75122 56.185 9.80474 56.0579 9.80474 55.8929C9.80474 55.7279 9.74899 55.5986 9.63751 55.5049C9.53048 55.4113 9.3811 55.3645 9.18934 55.3645H8.3599V56.4013H9.20272ZM14.02 57.3244L13.0434 55.5518H12.7692V57.3244H11.6254V52.6286H13.5451C13.9152 52.6286 14.2296 52.6933 14.4883 52.8226C14.7514 52.9519 14.9476 53.1303 15.0769 53.3578C15.2062 53.5807 15.2709 53.8304 15.2709 54.1069C15.2709 54.4191 15.1817 54.6978 15.0033 54.9431C14.8294 55.1883 14.5708 55.3622 14.2274 55.4648L15.311 57.3244H14.02ZM12.7692 54.7424H13.4782C13.6878 54.7424 13.8439 54.6911 13.9465 54.5885C14.0535 54.486 14.107 54.341 14.107 54.1537C14.107 53.9754 14.0535 53.8349 13.9465 53.7323C13.8439 53.6298 13.6878 53.5785 13.4782 53.5785H12.7692V54.7424ZM17.1327 52.6286V57.3244H15.9889V52.6286H17.1327ZM21.0788 54.1136C20.994 53.9575 20.8714 53.8394 20.7109 53.7591C20.5548 53.6744 20.3697 53.632 20.1557 53.632C19.7855 53.632 19.489 53.7546 19.266 53.9999C19.0431 54.2407 18.9316 54.564 18.9316 54.9698C18.9316 55.4024 19.0475 55.7413 19.2794 55.9865C19.5158 56.2274 19.8391 56.3478 20.2493 56.3478C20.5303 56.3478 20.7666 56.2764 20.9584 56.1337C21.1546 55.991 21.2973 55.7859 21.3865 55.5183H19.9349V54.6755H22.4233V55.7391C22.3385 56.0245 22.1936 56.2898 21.9885 56.535C21.7878 56.7803 21.5314 56.9788 21.2192 57.1304C20.9071 57.282 20.5548 57.3578 20.1624 57.3578C19.6986 57.3578 19.2839 57.2575 18.9182 57.0568C18.557 56.8517 18.2738 56.5685 18.0687 56.2073C17.868 55.8461 17.7677 55.4336 17.7677 54.9698C17.7677 54.506 17.868 54.0935 18.0687 53.7323C18.2738 53.3667 18.557 53.0835 18.9182 52.8828C19.2794 52.6777 19.6919 52.5751 20.1557 52.5751C20.7175 52.5751 21.1902 52.7111 21.5737 52.9832C21.9617 53.2552 22.2181 53.632 22.343 54.1136H21.0788ZM27.1238 52.6286V57.3244H25.9799V55.3912H24.2007V57.3244H23.0568V52.6286H24.2007V54.4681H25.9799V52.6286H27.1238ZM31.3275 52.6286V53.545H30.0833V57.3244H28.9395V53.545H27.6953V52.6286H31.3275ZM35.0181 57.3712C34.6747 57.3712 34.367 57.3154 34.095 57.204C33.8229 57.0925 33.6044 56.9275 33.4394 56.709C33.2789 56.4905 33.1942 56.2274 33.1853 55.9197H34.4027C34.4205 56.0936 34.4807 56.2274 34.5833 56.321C34.6858 56.4102 34.8196 56.4548 34.9846 56.4548C35.1541 56.4548 35.2878 56.4169 35.3859 56.3411C35.4841 56.2608 35.5331 56.1515 35.5331 56.0133C35.5331 55.8974 35.493 55.8015 35.4127 55.7257C35.3369 55.6499 35.241 55.5874 35.1251 55.5384C35.0136 55.4893 34.8531 55.4336 34.6435 55.3712C34.3402 55.2775 34.0927 55.1839 33.901 55.0902C33.7092 54.9966 33.5442 54.8583 33.406 54.6755C33.2678 54.4927 33.1986 54.2541 33.1986 53.9598C33.1986 53.5227 33.3569 53.1816 33.6736 52.9363C33.9902 52.6866 34.4027 52.5618 34.911 52.5618C35.4283 52.5618 35.8453 52.6866 36.1619 52.9363C36.4785 53.1816 36.6479 53.525 36.6702 53.9665H35.4328C35.4239 53.8148 35.3681 53.6967 35.2655 53.6119C35.163 53.5227 35.0314 53.4782 34.8709 53.4782C34.7327 53.4782 34.6212 53.5161 34.5364 53.5919C34.4517 53.6632 34.4093 53.768 34.4093 53.9063C34.4093 54.0579 34.4807 54.176 34.6234 54.2608C34.7661 54.3455 34.9891 54.4369 35.2923 54.535C35.5955 54.6376 35.8408 54.7357 36.0281 54.8293C36.2198 54.923 36.3848 55.059 36.5231 55.2374C36.6613 55.4157 36.7304 55.6454 36.7304 55.9263C36.7304 56.1939 36.6613 56.4369 36.5231 56.6555C36.3893 56.874 36.1931 57.0479 35.9345 57.1772C35.6758 57.3065 35.3703 57.3712 35.0181 57.3712ZM40.8123 52.6286V53.545H39.5682V57.3244H38.4243V53.545H37.1802V52.6286H40.8123ZM44.3095 56.4949H42.557L42.276 57.3244H41.0787L42.7777 52.6286H44.1021L45.8012 57.3244H44.5904L44.3095 56.4949ZM44.0152 55.612L43.4332 53.8929L42.858 55.612H44.0152ZM48.7129 57.3244L47.7363 55.5518H47.4621V57.3244H46.3183V52.6286H48.238C48.6081 52.6286 48.9225 52.6933 49.1812 52.8226C49.4443 52.9519 49.6405 53.1303 49.7698 53.3578C49.8991 53.5807 49.9638 53.8304 49.9638 54.1069C49.9638 54.4191 49.8746 54.6978 49.6962 54.9431C49.5223 55.1883 49.2637 55.3622 48.9203 55.4648L50.0039 57.3244H48.7129ZM47.4621 54.7424H48.1711C48.3807 54.7424 48.5368 54.6911 48.6394 54.5885C48.7464 54.486 48.7999 54.341 48.7999 54.1537C48.7999 53.9754 48.7464 53.8349 48.6394 53.7323C48.5368 53.6298 48.3807 53.5785 48.1711 53.5785H47.4621V54.7424ZM52.3808 57.3712C52.0375 57.3712 51.7298 57.3154 51.4577 57.204C51.1857 57.0925 50.9672 56.9275 50.8022 56.709C50.6417 56.4905 50.5569 56.2274 50.548 55.9197H51.7654C51.7833 56.0936 51.8435 56.2274 51.946 56.321C52.0486 56.4102 52.1824 56.4548 52.3474 56.4548C52.5168 56.4548 52.6506 56.4169 52.7487 56.3411C52.8468 56.2608 52.8959 56.1515 52.8959 56.0133C52.8959 55.8974 52.8558 55.8015 52.7755 55.7257C52.6997 55.6499 52.6038 55.5874 52.4879 55.5384C52.3764 55.4893 52.2158 55.4336 52.0062 55.3712C51.703 55.2775 51.4555 55.1839 51.2638 55.0902C51.072 54.9966 50.907 54.8583 50.7688 54.6755C50.6305 54.4927 50.5614 54.2541 50.5614 53.9598C50.5614 53.5227 50.7197 53.1816 51.0363 52.9363C51.3529 52.6866 51.7654 52.5618 52.2738 52.5618C52.7911 52.5618 53.208 52.6866 53.5247 52.9363C53.8413 53.1816 54.0107 53.525 54.033 53.9665H52.7955C52.7866 53.8148 52.7309 53.6967 52.6283 53.6119C52.5258 53.5227 52.3942 53.4782 52.2337 53.4782C52.0954 53.4782 51.9839 53.5161 51.8992 53.5919C51.8145 53.6632 51.7721 53.768 51.7721 53.9063C51.7721 54.0579 51.8435 54.176 51.9862 54.2608C52.1289 54.3455 52.3518 54.4369 52.6551 54.535C52.9583 54.6376 53.2036 54.7357 53.3909 54.8293C53.5826 54.923 53.7476 55.059 53.8859 55.2374C54.0241 55.4157 54.0932 55.6454 54.0932 55.9263C54.0932 56.1939 54.0241 56.4369 53.8859 56.6555C53.7521 56.874 53.5559 57.0479 53.2972 57.1772C53.0386 57.3065 52.7331 57.3712 52.3808 57.3712Z" fill="black"/>
<rect width="59.3512" height="10" transform="translate(57.477 50.3244)" fill="black"/>
<path d="M63.6242 52.6287V53.5451H61.7111V54.5351H63.1426V55.4247H61.7111V57.3244H60.5673V52.6287H63.6242ZM65.3692 52.6287V57.3244H64.2254V52.6287H65.3692ZM69.5761 52.6287V53.5451H68.3319V57.3244H67.1881V53.5451H65.9439V52.6287H69.5761ZM74.3508 57.3244H73.207L71.2939 54.428V57.3244H70.1501V52.6287H71.2939L73.207 55.5384V52.6287H74.3508V57.3244ZM76.3238 53.5451V54.4949H77.8556V55.3779H76.3238V56.408H78.0563V57.3244H75.18V52.6287H78.0563V53.5451H76.3238ZM80.4979 57.3712C80.1545 57.3712 79.8468 57.3155 79.5748 57.204C79.3028 57.0925 79.0842 56.9275 78.9193 56.709C78.7587 56.4905 78.674 56.2274 78.6651 55.9197H79.8825C79.9003 56.0936 79.9605 56.2274 80.0631 56.321C80.1656 56.4102 80.2994 56.4548 80.4644 56.4548C80.6339 56.4548 80.7677 56.4169 80.8658 56.3411C80.9639 56.2608 81.0129 56.1516 81.0129 56.0133C81.0129 55.8974 80.9728 55.8015 80.8925 55.7257C80.8167 55.6499 80.7208 55.5875 80.6049 55.5384C80.4934 55.4894 80.3329 55.4336 80.1233 55.3712C79.82 55.2775 79.5725 55.1839 79.3808 55.0903C79.189 54.9966 79.024 54.8584 78.8858 54.6755C78.7476 54.4927 78.6784 54.2541 78.6784 53.9598C78.6784 53.5228 78.8368 53.1816 79.1534 52.9364C79.47 52.6867 79.8825 52.5618 80.3908 52.5618C80.9081 52.5618 81.3251 52.6867 81.6417 52.9364C81.9583 53.1816 82.1278 53.525 82.1501 53.9665H80.9126C80.9037 53.8149 80.8479 53.6967 80.7454 53.612C80.6428 53.5228 80.5112 53.4782 80.3507 53.4782C80.2125 53.4782 80.101 53.5161 80.0163 53.5919C79.9315 53.6633 79.8892 53.7681 79.8892 53.9063C79.8892 54.0579 79.9605 54.1761 80.1032 54.2608C80.2459 54.3455 80.4689 54.437 80.7721 54.5351C81.0754 54.6376 81.3206 54.7357 81.5079 54.8294C81.6997 54.923 81.8647 55.059 82.0029 55.2374C82.1411 55.4158 82.2103 55.6454 82.2103 55.9264C82.2103 56.1939 82.1411 56.437 82.0029 56.6555C81.8691 56.874 81.6729 57.0479 81.4143 57.1772C81.1556 57.3066 80.8502 57.3712 80.4979 57.3712ZM84.6132 57.3712C84.2698 57.3712 83.9621 57.3155 83.6901 57.204C83.4181 57.0925 83.1996 56.9275 83.0346 56.709C82.874 56.4905 82.7893 56.2274 82.7804 55.9197H83.9978C84.0156 56.0936 84.0758 56.2274 84.1784 56.321C84.281 56.4102 84.4148 56.4548 84.5798 56.4548C84.7492 56.4548 84.883 56.4169 84.9811 56.3411C85.0792 56.2608 85.1283 56.1516 85.1283 56.0133C85.1283 55.8974 85.0881 55.8015 85.0079 55.7257C84.932 55.6499 84.8362 55.5875 84.7202 55.5384C84.6087 55.4894 84.4482 55.4336 84.2386 55.3712C83.9354 55.2775 83.6879 55.1839 83.4961 55.0903C83.3044 54.9966 83.1394 54.8584 83.0011 54.6755C82.8629 54.4927 82.7938 54.2541 82.7938 53.9598C82.7938 53.5228 82.9521 53.1816 83.2687 52.9364C83.5853 52.6867 83.9978 52.5618 84.5062 52.5618C85.0235 52.5618 85.4404 52.6867 85.757 52.9364C86.0736 53.1816 86.2431 53.525 86.2654 53.9665H85.0279C85.019 53.8149 84.9633 53.6967 84.8607 53.612C84.7581 53.5228 84.6266 53.4782 84.466 53.4782C84.3278 53.4782 84.2163 53.5161 84.1316 53.5919C84.0469 53.6633 84.0045 53.7681 84.0045 53.9063C84.0045 54.0579 84.0758 54.1761 84.2185 54.2608C84.3612 54.3455 84.5842 54.437 84.8874 54.5351C85.1907 54.6376 85.436 54.7357 85.6232 54.8294C85.815 54.923 85.98 55.059 86.1182 55.2374C86.2565 55.4158 86.3256 55.6454 86.3256 55.9264C86.3256 56.1939 86.2565 56.437 86.1182 56.6555C85.9845 56.874 85.7882 57.0479 85.5296 57.1772C85.271 57.3066 84.9655 57.3712 84.6132 57.3712ZM88.253 54.9698C88.253 54.5061 88.3534 54.0936 88.554 53.7324C88.7547 53.3667 89.0334 53.0835 89.3902 52.8829C89.7514 52.6777 90.1594 52.5752 90.6143 52.5752C91.1717 52.5752 91.6488 52.7223 92.0457 53.0166C92.4426 53.311 92.7079 53.7123 92.8417 54.2207H91.5842C91.4905 54.0245 91.3567 53.8751 91.1828 53.7725C91.0134 53.6699 90.8194 53.6187 90.6009 53.6187C90.2486 53.6187 89.9632 53.7413 89.7447 53.9866C89.5262 54.2318 89.4169 54.5596 89.4169 54.9698C89.4169 55.3801 89.5262 55.7079 89.7447 55.9531C89.9632 56.1984 90.2486 56.321 90.6009 56.321C90.8194 56.321 91.0134 56.2698 91.1828 56.1672C91.3567 56.0646 91.4905 55.9152 91.5842 55.719H92.8417C92.7079 56.2274 92.4426 56.6287 92.0457 56.9231C91.6488 57.2129 91.1717 57.3578 90.6143 57.3578C90.1594 57.3578 89.7514 57.2575 89.3902 57.0568C89.0334 56.8517 88.7547 56.5685 88.554 56.2073C88.3534 55.8461 88.253 55.4336 88.253 54.9698ZM94.686 53.5451V54.4949H96.2178V55.3779H94.686V56.408H96.4185V57.3244H93.5422V52.6287H96.4185V53.5451H94.686ZM101.362 57.3244H100.218L98.3049 54.428V57.3244H97.1611V52.6287H98.3049L100.218 55.5384V52.6287H101.362V57.3244ZM105.569 52.6287V53.5451H104.325V57.3244H103.181V53.5451H101.937V52.6287H105.569ZM108.538 57.3244L107.561 55.5518H107.287V57.3244H106.143V52.6287H108.063C108.433 52.6287 108.747 52.6933 109.006 52.8227C109.269 52.952 109.465 53.1304 109.594 53.3578C109.724 53.5808 109.788 53.8305 109.788 54.107C109.788 54.4191 109.699 54.6978 109.521 54.9431C109.347 55.1884 109.088 55.3623 108.745 55.4648L109.829 57.3244H108.538ZM107.287 54.7424H107.996C108.205 54.7424 108.361 54.6911 108.464 54.5886C108.571 54.486 108.625 54.3411 108.625 54.1538C108.625 53.9754 108.571 53.8349 108.464 53.7324C108.361 53.6298 108.205 53.5785 107.996 53.5785H107.287V54.7424ZM111.65 53.5451V54.4949H113.182V55.3779H111.65V56.408H113.383V57.3244H110.506V52.6287H113.383V53.5451H111.65Z" fill="white"/>
<path d="M18.5796 28.8637C18.5796 28.8637 53.8163 27.2497 67.5906 27.2495C81.3649 27.2493 104.109 28.8637 104.109 28.8637" stroke="black" stroke-width="2.56324" stroke-linecap="round"/>
<rect width="5.03622" height="32.1846" transform="matrix(0.956318 0.29233 -0.397638 0.917543 107.615 15.95)" fill="black"/>
<rect width="5.09938" height="31.6501" transform="matrix(-0.987712 0.156287 -0.218888 -0.97575 22.0257 44.1417)" fill="black"/>
<rect width="5.03622" height="23.1444" transform="matrix(0.956318 0.29233 -0.397638 0.917543 111.911 21.8684)" fill="black"/>
<rect width="5.09938" height="22.76" transform="matrix(-0.987712 0.156287 -0.218888 -0.97575 14.9415 41.5298)" fill="black"/>
<rect width="5.03622" height="12.1232" transform="matrix(0.956318 0.29233 -0.397638 0.917543 115.656 28.8636)" fill="black"/>
<rect width="5.09938" height="11.9219" transform="matrix(-0.987712 0.156287 -0.218888 -0.97575 7.64629 37.7546)" fill="black"/>
<path fill-rule="evenodd" clip-rule="evenodd" d="M48.3256 15.4627L51.0741 24.5086L44.1137 24.0911C44.1137 24.0911 43.6164 24.096 42.125 23.256C40.6336 22.416 40.1364 21.1633 40.1364 21.1633C40.1364 21.1633 39.8878 20.9546 39.3905 19.7068C38.8933 18.459 36.6561 9.68327 39.3906 9.05563C42.125 8.42798 47.3458 8.22327 47.3458 8.22327L67.7302 8.42942L70.7133 9.05575L71.9562 9.68208C71.9562 9.68208 73.0864 10.2468 73.6963 10.726C75.2181 11.9215 75.7325 12.9824 76.1822 14.6913C76.6868 16.6086 76.183 18.0317 75.685 19.702C75.187 21.3722 74.9384 21.9985 74.1935 24.2951C73.4486 26.5916 73.6963 25.1302 73.6963 25.1302C73.9441 25.3389 75.685 27.177 75.685 27.177C75.685 27.177 76.1822 27.4676 76.928 29.5145C77.6737 31.5613 77.6737 33.4812 77.6737 33.4812C77.6737 33.4812 76.928 40.7884 76.43 42.6674C75.9321 44.5464 76.0224 44.6619 74.9783 45.3406C73.8619 46.0664 70.7133 46.0078 70.7133 46.0078L62.2613 46.0079L40.8827 46.0078C39.9038 43.5274 39.7074 39.8144 40.1364 38.0743C40.1364 38.0743 40.438 37.0889 40.8827 36.5026C41.7106 35.411 41.3269 35.3485 43.4661 33.9973C45.6053 32.6461 49.3348 32.0198 49.3348 32.0198L54.058 31.811L57.7868 40.5797L61.5156 31.811L73.6963 31.3935L64.7472 25.5477L67.2331 16.1527L57.5382 21.1634L48.3256 15.4627Z" fill="url(#paint0_linear_659_7267)"/>
<path fill-rule="evenodd" clip-rule="evenodd" d="M51.0741 24.5086L48.3256 15.4627L57.5382 21.1634L67.2331 16.1527L64.7472 25.5477L73.6963 31.3935L61.5156 31.811L57.7868 40.5797L54.058 31.811L49.3348 32.0198C49.3348 32.0198 45.6053 32.6461 43.4661 33.9973C41.3269 35.3485 41.7106 35.411 40.8827 36.5026C40.438 37.0889 40.1364 38.0743 40.1364 38.0743C39.7074 39.8144 39.9038 43.5274 40.8827 46.0078L62.2613 46.0079L70.7133 46.0078C70.7133 46.0078 73.8619 46.0664 74.9783 45.3406C76.0224 44.6619 75.9321 44.5464 76.43 42.6674C76.928 40.7884 77.6737 33.4812 77.6737 33.4812C77.6737 33.4812 77.6737 31.5613 76.928 29.5145C76.1822 27.4676 75.685 27.177 75.685 27.177C75.685 27.177 73.9441 25.3389 73.6963 25.1302C73.6963 25.1302 73.4486 26.5916 74.1935 24.2951C74.9384 21.9985 75.187 21.3722 75.685 19.702C76.183 18.0317 76.6868 16.6086 76.1822 14.6913C75.7325 12.9824 75.2181 11.9215 73.6963 10.726C73.0864 10.2468 71.9562 9.68208 71.9562 9.68208L70.7133 9.05575L67.7302 8.42942L47.3458 8.22327C47.3458 8.22327 42.125 8.42798 39.3906 9.05563C36.6561 9.68327 38.8933 18.459 39.3905 19.7068C39.8878 20.9546 40.1364 21.1633 40.1364 21.1633C40.1364 21.1633 40.6336 22.416 42.125 23.256C43.6164 24.096 44.1137 24.0911 44.1137 24.0911L51.0741 24.5086Z" fill="url(#paint1_linear_659_7267)"/>
<defs>
<linearGradient id="paint0_linear_659_7267" x1="48.499" y1="6.61639" x2="60.9884" y2="49.1046" gradientUnits="userSpaceOnUse">
<stop stop-color="#FEDA57"/>
<stop offset="0.61609" stop-color="#6D84F1"/>
<stop offset="0.846561" stop-color="#7BD4FB"/>
</linearGradient>
<linearGradient id="paint1_linear_659_7267" x1="48.499" y1="6.61639" x2="60.9884" y2="49.1046" gradientUnits="userSpaceOnUse">
<stop stop-color="#FEDA57"/>
<stop offset="0.61609" stop-color="#6D84F1"/>
<stop offset="0.846561" stop-color="#7BD4FB"/>
</linearGradient>
</defs>
</svg>
