<svg width="607" height="501" viewBox="0 0 607 501" fill="none" xmlns="http://www.w3.org/2000/svg">
<path d="M261.213 12.3474C261.18 12.2898 261.15 12.2296 261.125 12.1686L261.166 12.1289C261.187 12.2004 261.203 12.2733 261.213 12.3474Z" fill="#3FBDF1"/>
<path d="M261.376 13.1427C261.313 12.9261 261.267 12.7043 261.24 12.4805C261.35 12.6838 261.397 12.9136 261.376 13.1427Z" fill="#3FBDF1"/>
<path d="M291.646 241.167C291.477 241.545 291.336 241.916 291.167 242.306C278.727 272.073 270.047 307.688 268.032 350.308C233.494 267.173 176.199 226.93 125.164 207.606C126.081 179.826 130.009 131.517 146.055 101.836C146.055 101.836 173.227 108.081 207.428 134.411C234.411 155.185 265.808 188.501 291.646 241.167Z" fill="#EC7184"/>
<path d="M296.738 240.714L295.572 240.456C295.741 240.058 295.889 239.681 296.051 239.297C296.28 239.76 296.516 240.284 296.738 240.714Z" fill="#3FBDF1"/>
<path d="M296.738 240.714L295.572 240.456C295.741 240.058 295.889 239.681 296.051 239.297C296.28 239.76 296.516 240.284 296.738 240.714Z" fill="#3FBDF1"/>
<path d="M274.408 431.541C274.077 431.541 273.734 431.541 273.41 431.541C144.546 431.541 37.7996 335.579 18.674 210.207C17.3868 199.505 17.1914 193.115 17.1914 193.115C17.1914 193.115 63.691 188.479 117.603 209.333C165.417 227.829 219.073 266.337 251.414 345.883V345.942C251.609 346.419 251.805 346.889 251.98 347.386C261.644 371.458 269.34 399.265 274.367 431.362C274.387 431.422 274.408 431.482 274.408 431.541Z" fill="#EC7184"/>
<path d="M574.383 196.957C562.071 338.957 444.845 450.456 301.91 451.025C301.991 444.575 304.046 371.684 348.821 305.601C368.834 275.781 395.72 251.017 427.297 233.32C428.193 232.81 429.063 232.326 429.993 231.843C431.091 231.227 432.216 230.638 433.362 230.048C433.652 229.883 433.962 229.73 434.279 229.565C435.377 228.995 436.475 228.426 437.601 227.876C438.18 227.585 438.76 227.287 439.367 227.015C440.566 226.406 441.793 225.81 443.019 225.241C444.246 224.671 445.324 224.168 446.49 223.645L446.901 223.453C447.777 223.049 448.646 222.671 449.536 222.294C450.641 221.784 451.739 221.32 452.858 220.857C456.12 219.466 459.483 218.141 462.913 216.883L464.099 216.44C465.548 215.89 467.003 215.367 468.479 214.857C498.131 204.526 533.14 197.964 574.383 196.957Z" fill="#EC7184"/>
<path d="M379.848 131.08C350.647 152.814 317.754 187.071 296.054 239.3C270.237 185.594 238.927 151.609 211.998 130.424C227.902 101.287 263.949 42.064 296.742 14.3633C296.742 14.3633 346.388 62.5532 379.848 131.08Z" fill="#EC7184"/>
<path d="M465.533 209.317C464.091 209.814 462.663 210.331 461.234 210.867L460.075 211.304C456.705 212.543 453.417 213.847 450.216 215.211C449.117 215.668 448.039 216.118 446.961 216.615C446.085 216.993 445.229 217.363 444.373 217.754L443.962 217.94C442.823 218.456 441.684 218.973 440.592 219.516C439.5 220.059 438.186 220.648 437 221.251C436.414 221.516 435.841 221.807 435.275 222.098C434.17 222.635 433.092 223.191 432.013 223.754C431.71 223.919 431.4 224.059 431.117 224.224C430.019 224.807 428.92 225.383 427.835 225.986C426.939 226.462 426.083 226.933 425.207 227.429C394.219 244.787 367.833 269.079 348.186 298.333C304.275 363.152 302.253 434.658 302.172 440.983L302.071 440.797C296.815 407.236 288.775 378.164 278.666 353L279.462 350.437L278.08 351.49C278.08 351.49 278.08 351.49 278.08 351.45C280.055 308.816 288.546 273.169 300.73 243.415L301.869 243.66L301.195 242.276C322.484 191.04 354.75 157.439 383.411 136.122C417.167 111.024 445.943 102.898 445.943 102.898C461.295 121.547 464.799 178.59 465.533 209.317Z" fill="#EC7184"/>
<path d="M271.139 357.732V357.664C271.139 357.664 271.139 357.705 271.139 357.732Z" stroke="#CCDDE2" stroke-width="2.85291" stroke-miterlimit="10"/>
<path d="M296.047 239.951C295.872 240.355 295.717 240.752 295.541 241.176C282.407 273.267 273.249 311.709 271.112 357.687C234.654 268.002 174.158 224.58 120.252 203.74C121.216 173.768 125.367 121.658 142.322 89.6328C142.322 89.6328 171.01 96.3676 207.125 124.777C235.618 147.187 268.767 183.132 296.047 239.951Z" stroke="#CCDDE2" stroke-width="2.85291" stroke-miterlimit="10"/>
<path d="M296.776 241.442L295.543 241.17C295.718 240.747 295.873 240.349 296.048 239.945C296.291 240.435 296.52 240.945 296.776 241.442Z" stroke="#CCDDE2" stroke-width="2.85291" stroke-miterlimit="10"/>
<path d="M271.139 357.732V357.664C271.139 357.664 271.139 357.705 271.139 357.732Z" stroke="#CCDDE2" stroke-width="2.85291" stroke-miterlimit="10"/>
<path d="M296.776 241.442L295.543 241.17C295.718 240.747 295.873 240.349 296.048 239.945C296.291 240.435 296.52 240.945 296.776 241.442Z" stroke="#CCDDE2" stroke-width="2.85291" stroke-miterlimit="10"/>
<path opacity="0.9" d="M73.7994 348.317C71.4205 345.463 69.0821 342.543 66.8312 339.576C36.5318 299.965 16.5725 253.661 8.70012 204.715C6.73905 192.722 7.04231 185.45 7.04231 185.45C7.04231 185.45 59.4385 180.232 120.258 203.734C174.171 224.581 234.647 267.97 271.112 357.681V357.754C271.334 358.29 271.564 358.827 271.745 359.383C282.663 386.534 291.329 417.871 297.003 454.081C297.003 454.147 297.003 454.213 297.003 454.286C296.619 454.286 296.255 454.286 295.871 454.286C220.684 454.18 152.114 424.711 100.412 376.568C95.0207 371.555 89.7709 366.317 84.7571 360.893" stroke="#CCDDE2" stroke-width="2.85291" stroke-miterlimit="10"/>
<path d="M271.139 357.732V357.664C271.139 357.664 271.139 357.705 271.139 357.732Z" stroke="#CCDDE2" stroke-width="2.85291" stroke-miterlimit="10"/>
<path opacity="0.9" d="M585.368 185.477C572.341 335.702 448.343 453.637 297.125 454.239C297.213 447.418 299.389 370.309 346.745 300.399C367.923 268.855 396.37 242.66 429.776 223.938C430.727 223.402 431.65 222.892 432.614 222.382C433.779 221.72 434.966 221.111 436.152 220.482C436.455 220.303 436.785 220.151 437.115 219.972C438.281 219.369 439.447 218.766 440.633 218.19C441.246 217.872 441.86 217.528 442.5 217.27C443.773 216.608 445.067 216.005 446.368 215.402C447.669 214.8 448.801 214.263 450.034 213.707L450.472 213.502C451.395 213.078 452.319 212.681 453.262 212.277C454.428 211.74 455.587 211.25 456.773 210.76C460.223 209.29 463.782 207.886 467.407 206.548L468.661 206.078C470.197 205.502 471.734 204.939 473.297 204.409C504.708 193.456 541.746 186.543 585.368 185.477Z" stroke="#CCDDE2" stroke-width="2.85291" stroke-miterlimit="10"/>
<path d="M384.684 125.471C353.798 148.457 318.998 184.694 296.045 239.95C268.765 183.131 235.616 147.186 207.123 124.776C223.971 93.9363 262.087 31.3033 296.752 2C296.773 2 349.25 52.9779 384.684 125.471Z" stroke="#CCDDE2" stroke-width="2.85291" stroke-miterlimit="10"/>
<path d="M93.848 289.583C93.8547 289.54 93.8547 289.495 93.848 289.451C93.848 289.404 93.848 289.358 93.848 289.272C93.8371 289.197 93.8371 289.122 93.848 289.047C93.8669 289.206 93.8987 289.363 93.9426 289.517C93.9325 289.534 93.919 289.549 93.9027 289.56C93.8858 289.571 93.8676 289.579 93.848 289.583Z" fill="white"/>
<path d="M94.0969 332.392C93.0571 335.689 91.7288 338.89 90.1276 341.961C89.6694 342.829 89.2178 343.676 88.7191 344.524C87.0169 347.664 84.9278 350.587 82.499 353.226C82.0677 353.087 81.6364 352.908 81.2523 352.755C81.1647 352.755 81.0905 352.689 81.0232 352.663C73.1722 349.299 67.2755 342.988 65.5233 335.895C63.9599 329.651 65.3684 322.896 62.3493 317.035C58.6293 309.817 48.6016 305.301 47.3481 297.142C46.216 289.513 53.2044 282.514 52.0655 275.044C50.7716 266.587 40.198 261.574 38.2437 253.323C36.997 248.197 38.1089 242.284 37.6574 236.999C37.1358 231.092 36.1168 225.238 34.6113 219.497C35.3391 219.45 36.067 219.43 36.7948 219.404C51.6207 219.159 66.2916 227.35 71.1033 238.893C74.985 248.217 73.0104 258.985 78.1591 267.726C78.4711 268.291 78.8195 268.835 79.2036 269.355C79.8789 270.277 80.606 271.161 81.3803 272.004L83.0179 273.68C83.2875 273.944 83.584 274.189 83.8536 274.481C84.1231 274.772 84.4196 275.017 84.6959 275.309C87.2568 277.712 89.8715 280.143 91.5698 283.023C91.7268 283.273 91.8636 283.535 91.9809 283.805C92.1399 284.066 92.2747 284.341 92.3852 284.626C92.5314 284.917 92.6622 285.215 92.7761 285.52C92.9108 285.851 93.0254 286.182 93.1332 286.546C93.295 287.083 93.4567 287.593 93.5645 288.129C93.5645 288.262 93.5645 288.374 93.6117 288.487C93.6589 288.599 93.6117 288.573 93.6117 288.619C93.6218 288.663 93.6218 288.708 93.6117 288.752C93.6211 288.828 93.6373 288.903 93.6589 288.977V289.023C93.6616 289.106 93.675 289.189 93.6993 289.268C93.6993 289.354 93.6993 289.401 93.6993 289.447C93.706 289.491 93.706 289.536 93.6993 289.579V289.626L91.9539 314.512C93.0726 320.532 95.8693 326.531 94.0969 332.392Z" fill="#9EE120"/>
<path d="M107.279 271.986C108.418 266.589 108.506 260.927 111.094 255.775C115.905 246.279 129.963 239.385 144.701 238.941H144.971C146.319 238.941 147.667 238.941 149.014 239.008C147.489 243.944 146.449 249.014 145.908 254.146C145.409 258.715 146.582 263.828 145.294 268.218C143.226 275.35 132.221 279.681 130.886 286.972C129.7 293.436 136.985 299.482 135.786 306.058C134.492 313.104 124.053 317.004 120.198 323.275C117.085 328.341 118.54 334.156 116.93 339.533C115.043 345.665 108.843 351.128 100.682 354.002C100.156 354.181 99.6845 354.36 99.1589 354.519C98.8826 354.585 98.5658 354.698 98.2963 354.764C98.2019 354.698 98.1143 354.605 97.9997 354.519C95.3648 352.314 92.4131 348.592 89.9668 344.586L90.1488 342.043C91.75 338.971 93.0782 335.77 94.1181 332.474C95.8904 326.613 93.0937 320.613 92.0963 314.594L93.8418 289.707L94.3876 289.264C94.5871 289.119 94.7758 288.962 94.9537 288.793C97.6493 286.655 100.561 284.602 102.643 282.171C105.231 279.185 106.437 275.907 107.205 272.47" fill="#9EE120"/>
<path d="M107.211 272.346C107.211 272.233 107.258 272.127 107.279 271.988L107.211 272.346Z" fill="white"/>
<path d="M107.28 271.967C107.28 272.106 107.233 272.212 107.213 272.325C106.445 275.762 105.238 279.039 102.651 282.026C100.568 284.456 97.6636 286.509 94.9613 288.648C94.784 288.817 94.5947 288.974 94.3952 289.119L93.8493 289.582C93.8587 289.554 93.8587 289.524 93.8493 289.496C93.8284 289.419 93.8042 289.344 93.7752 289.271C93.7644 289.196 93.7644 289.12 93.7752 289.046V288.999C93.7536 288.925 93.7381 288.85 93.728 288.774C93.7381 288.73 93.7381 288.685 93.728 288.642C93.7381 288.621 93.7435 288.598 93.7435 288.576C93.7435 288.552 93.7381 288.53 93.728 288.509C93.7112 288.388 93.6862 288.269 93.6539 288.152C93.5461 287.615 93.3843 287.105 93.2226 286.569C93.1148 286.231 93.0002 285.874 92.8654 285.543C92.7515 285.238 92.6208 284.939 92.4745 284.649C92.3789 284.358 92.2427 284.081 92.0702 283.827C91.9536 283.557 91.8161 283.296 91.6591 283.046C89.9609 280.165 87.3461 277.748 84.7853 275.331C84.509 275.04 84.2192 274.748 83.9429 274.503C83.6666 274.258 83.3768 273.967 83.1073 273.702L81.4697 272.027C80.6954 271.184 79.9689 270.299 79.293 269.378C79.293 269.378 80.8025 243.597 94.2132 235.796C106.876 228.366 107.28 267.616 107.28 271.967Z" fill="#9EE120"/>
<path d="M107.211 272.346C107.211 272.233 107.258 272.127 107.279 271.988L107.211 272.346Z" fill="white"/>
<path d="M93.8284 289.497V289.603C93.8352 289.559 93.8352 289.514 93.8284 289.47C93.8284 289.424 93.8284 289.378 93.8284 289.292C93.8176 289.217 93.8176 289.141 93.8284 289.066C93.8183 289.21 93.8183 289.354 93.8284 289.497Z" fill="white"/>
<path d="M139.214 247.191C115.041 272.753 103.679 326.658 99.2517 354.471C98.8878 356.822 98.5778 358.968 98.2812 360.902" fill="#C2EC71"/>
<path d="M141.446 376.562L130.327 441.036C130.064 442.798 129.175 444.411 127.819 445.592C126.463 446.772 124.726 447.443 122.914 447.486H64.7831C62.9568 447.441 61.2067 446.756 59.8474 445.555C58.4888 444.355 57.61 442.717 57.3701 440.937L47.1133 376.562H141.446Z" fill="#3D0B13"/>
<path d="M152.006 369.371C151.905 371.281 151.074 373.082 149.68 374.415C148.286 375.748 146.431 376.515 144.486 376.563H44.2288C42.3028 376.517 40.4644 375.766 39.0741 374.456C37.6832 373.146 36.8421 371.373 36.7148 369.484C36.2902 364.888 39.7743 360.875 44.2288 360.875H144.486C148.893 360.908 152.364 364.782 152.006 369.371Z" fill="#3D0B13"/>
<path d="M93.8967 289.631C93.8953 289.486 93.8703 289.343 93.8223 289.207L93.8967 289.631Z" fill="white"/>
<path d="M44.2148 228.969C67.4174 258.583 78.3346 321.018 82.6274 353.248C82.9913 356.043 83.3013 358.605 83.5776 360.897" fill="white"/>
<path d="M95.9372 260.438C93.0327 269.225 92.8911 278.099 93.2416 283.721C93.3346 285.536 93.53 287.344 93.8279 289.138" fill="white"/>
<path d="M93.848 289.583C93.8547 289.54 93.8547 289.495 93.848 289.451C93.848 289.404 93.848 289.358 93.848 289.272C93.8371 289.197 93.8371 289.122 93.848 289.047C93.8669 289.206 93.8987 289.363 93.9426 289.517C93.9325 289.534 93.919 289.549 93.9027 289.56C93.8858 289.571 93.8676 289.579 93.848 289.583Z" stroke="#CCDDE2" stroke-width="2.85291" stroke-miterlimit="10"/>
<path d="M94.0969 332.392C93.0571 335.689 91.7288 338.89 90.1276 341.961C89.6694 342.829 89.2178 343.676 88.7191 344.524C87.0169 347.664 84.9278 350.587 82.499 353.226C82.0677 353.087 81.6364 352.908 81.2523 352.755C81.1647 352.755 81.0905 352.689 81.0232 352.663C73.1722 349.299 67.2755 342.988 65.5233 335.895C63.9599 329.651 65.3684 322.896 62.3493 317.035C58.6293 309.817 48.6016 305.301 47.3481 297.142C46.216 289.513 53.2044 282.514 52.0655 275.044C50.7716 266.587 40.198 261.574 38.2437 253.323C36.997 248.197 38.1089 242.284 37.6574 236.999C37.1358 231.092 36.1168 225.238 34.6113 219.497C35.3391 219.45 36.067 219.43 36.7948 219.404C51.6207 219.159 66.2916 227.35 71.1033 238.893C74.985 248.217 73.0104 258.985 78.1591 267.726C78.4711 268.291 78.8195 268.835 79.2036 269.355C79.8789 270.277 80.606 271.161 81.3803 272.004L83.0179 273.68C83.2875 273.944 83.584 274.189 83.8536 274.481C84.1231 274.772 84.4196 275.017 84.6959 275.309C87.2568 277.712 89.8715 280.143 91.5698 283.023C91.7268 283.273 91.8636 283.535 91.9809 283.805C92.1399 284.066 92.2747 284.341 92.3852 284.626C92.5314 284.917 92.6622 285.215 92.7761 285.52C92.9108 285.851 93.0254 286.182 93.1332 286.546C93.295 287.083 93.4567 287.593 93.5645 288.129C93.5645 288.262 93.5645 288.374 93.6117 288.487C93.6589 288.599 93.6117 288.573 93.6117 288.619C93.6218 288.663 93.6218 288.708 93.6117 288.752C93.6211 288.828 93.6373 288.903 93.6589 288.977V289.023C93.6616 289.106 93.675 289.189 93.6993 289.268C93.6993 289.354 93.6993 289.401 93.6993 289.447C93.706 289.491 93.706 289.536 93.6993 289.579V289.626L91.9539 314.512C93.0726 320.532 95.8693 326.531 94.0969 332.392Z" stroke="#CCDDE2" stroke-width="2.85291" stroke-miterlimit="10"/>
<path d="M107.279 271.986C108.418 266.589 108.506 260.927 111.094 255.775C115.905 246.279 129.963 239.385 144.701 238.941H144.971C146.319 238.941 147.667 238.941 149.014 239.008C147.489 243.944 146.449 249.014 145.908 254.146C145.409 258.715 146.582 263.828 145.294 268.218C143.226 275.35 132.221 279.681 130.886 286.972C129.7 293.436 136.985 299.482 135.786 306.058C134.492 313.104 124.053 317.004 120.198 323.275C117.085 328.341 118.54 334.156 116.93 339.533C115.043 345.665 108.843 351.128 100.682 354.002C100.156 354.181 99.6845 354.36 99.1589 354.519C98.8826 354.585 98.5658 354.698 98.2963 354.764C98.2019 354.698 98.1143 354.605 97.9997 354.519C95.3648 352.314 92.4131 348.592 89.9668 344.586L90.1488 342.043C91.75 338.971 93.0782 335.77 94.1181 332.474C95.8904 326.613 93.0937 320.613 92.0963 314.594L93.8418 289.707L94.3876 289.264C94.5871 289.119 94.7758 288.962 94.9537 288.793C97.6493 286.655 100.561 284.602 102.643 282.171C105.231 279.185 106.437 275.907 107.205 272.47" stroke="#CCDDE2" stroke-width="2.85291" stroke-miterlimit="10"/>
<path d="M107.211 272.346C107.211 272.233 107.258 272.127 107.279 271.988" stroke="#CCDDE2" stroke-width="2.85291" stroke-miterlimit="10"/>
<path d="M107.28 271.967C107.28 272.106 107.233 272.212 107.213 272.325C106.445 275.762 105.238 279.039 102.651 282.026C100.568 284.456 97.6636 286.509 94.9613 288.648C94.784 288.817 94.5947 288.974 94.3952 289.119L93.8493 289.582C93.8587 289.554 93.8587 289.524 93.8493 289.496C93.8284 289.419 93.8042 289.344 93.7752 289.271C93.7644 289.196 93.7644 289.12 93.7752 289.046V288.999C93.7536 288.925 93.7381 288.85 93.728 288.774C93.7381 288.73 93.7381 288.685 93.728 288.642C93.7381 288.621 93.7435 288.598 93.7435 288.576C93.7435 288.552 93.7381 288.53 93.728 288.509C93.7112 288.388 93.6862 288.269 93.6539 288.152C93.5461 287.615 93.3843 287.105 93.2226 286.569C93.1148 286.231 93.0002 285.874 92.8654 285.543C92.7515 285.238 92.6208 284.939 92.4745 284.649C92.3789 284.358 92.2427 284.081 92.0702 283.827C91.9536 283.557 91.8161 283.296 91.6591 283.046C89.9609 280.165 87.3461 277.748 84.7853 275.331C84.509 275.04 84.2192 274.748 83.9429 274.503C83.6666 274.258 83.3768 273.967 83.1073 273.702L81.4697 272.027C80.6954 271.184 79.9689 270.299 79.293 269.378C79.293 269.378 80.8025 243.597 94.2132 235.796C106.876 228.366 107.28 267.616 107.28 271.967Z" stroke="#CCDDE2" stroke-width="2.85291" stroke-miterlimit="10"/>
<path d="M107.211 272.346C107.211 272.233 107.258 272.127 107.279 271.988" stroke="#CCDDE2" stroke-width="2.85291" stroke-miterlimit="10"/>
<path d="M93.8284 289.497V289.603C93.8352 289.559 93.8352 289.514 93.8284 289.47C93.8284 289.424 93.8284 289.378 93.8284 289.292C93.8176 289.217 93.8176 289.141 93.8284 289.066C93.8183 289.21 93.8183 289.354 93.8284 289.497Z" stroke="#CCDDE2" stroke-width="2.85291" stroke-miterlimit="10"/>
<path d="M139.214 247.191C115.041 272.753 103.679 326.658 99.2517 354.471C98.8878 356.822 98.5778 358.968 98.2812 360.902" stroke="#CCDDE2" stroke-width="2.85291" stroke-miterlimit="10"/>
<path d="M141.446 376.562L130.327 441.036C130.064 442.798 129.175 444.411 127.819 445.592C126.463 446.772 124.726 447.443 122.914 447.486H64.7831C62.9568 447.441 61.2067 446.756 59.8474 445.555C58.4888 444.355 57.61 442.717 57.3701 440.937L47.1133 376.562H141.446Z" stroke="#CCDDE2" stroke-width="2.85291" stroke-miterlimit="10"/>
<path d="M152.006 369.371C151.905 371.281 151.074 373.082 149.68 374.415C148.286 375.748 146.431 376.515 144.486 376.563H44.2288C42.3028 376.517 40.4644 375.766 39.0741 374.456C37.6832 373.146 36.8421 371.373 36.7148 369.484C36.2902 364.888 39.7743 360.875 44.2288 360.875H144.486C148.893 360.908 152.364 364.782 152.006 369.371Z" stroke="#CCDDE2" stroke-width="2.85291" stroke-miterlimit="10"/>
<path d="M93.8967 289.631C93.8953 289.486 93.8703 289.343 93.8223 289.207L93.8967 289.631Z" stroke="#CCDDE2" stroke-width="2.85291" stroke-miterlimit="10"/>
<path d="M44.2148 228.969C67.4174 258.583 78.3346 321.018 82.6274 353.248C82.9913 356.043 83.3013 358.605 83.5776 360.897" fill="#9EE120"/>
<path d="M44.2148 228.969C67.4174 258.583 78.3346 321.018 82.6274 353.248C82.9913 356.043 83.3013 358.605 83.5776 360.897" stroke="#CCDDE2" stroke-width="2.85291" stroke-miterlimit="10"/>
<path d="M95.9372 260.438C93.0327 269.225 92.8911 278.099 93.2416 283.721C93.3346 285.536 93.53 287.344 93.8279 289.138" stroke="#CCDDE2" stroke-width="2.85291" stroke-miterlimit="10"/>
<path d="M473.297 204.407C471.733 204.937 470.197 205.499 468.66 206.076L467.407 206.546C463.781 207.87 460.223 209.287 456.773 210.757C455.586 211.247 454.427 211.738 453.261 212.274C452.318 212.678 451.395 213.075 450.472 213.499L450.033 213.704C448.8 214.261 447.574 214.817 446.367 215.4C445.161 215.982 443.773 216.625 442.499 217.267C441.825 217.558 441.246 217.87 440.632 218.188C439.446 218.764 438.281 219.366 437.115 219.969C436.785 220.148 436.441 220.3 436.151 220.479C434.965 221.108 433.779 221.73 432.613 222.379C431.649 222.889 430.726 223.399 429.776 223.936C396.369 242.657 367.923 268.852 346.744 300.396C299.389 370.307 297.212 447.409 297.124 454.237L297.01 454.039C291.342 417.848 282.669 386.491 271.772 359.34L272.628 356.579L271.139 357.718C271.139 357.718 271.139 357.718 271.139 357.671C273.275 311.693 282.433 273.251 295.568 241.16L296.801 241.432C296.558 240.935 296.316 240.425 296.073 239.935C319.026 184.679 353.827 148.442 384.712 125.457C421.103 98.385 452.15 89.6172 452.15 89.6172C468.728 109.749 472.501 171.269 473.297 204.407Z" stroke="#CCDDE2" stroke-width="2.85291" stroke-miterlimit="10"/>
<path d="M475.501 442.265C470.667 441.312 465.932 440.173 461.295 438.848C442.278 433.385 420.187 424.061 412.612 404.459C410.717 399.395 410.12 393.949 410.873 388.605C411.626 383.259 413.707 378.179 416.932 373.811C420.349 369.154 425.152 365.653 430.68 363.792C442.709 359.971 456.019 365.924 464.941 374.732C473.864 383.539 479.605 394.877 486.594 405.234C480.272 391.327 473.857 377.016 472.987 361.812C472.314 349.958 475.589 337.104 483.905 328.197C491.56 319.999 509.459 313.582 519.999 319.589C526.954 323.562 529.73 332.012 530.923 339.826C534.198 361.209 529.993 382.937 525.808 404.168C528.618 392.817 531.637 381.361 537.366 371.123C543.094 360.885 551.875 351.839 563.122 348.044C571 345.395 580.354 345.68 586.952 350.693C593.104 355.329 595.854 363.229 596.703 370.818C598.118 383.546 595.072 396.453 589.829 408.167C570.266 451.894 516.01 450.212 475.501 442.265Z" fill="#9EE120"/>
<path d="M519.641 420.615C519.641 420.615 549.798 428.846 560.446 387.656L519.641 420.615Z" fill="white"/>
<path d="M506.224 350.309C497.841 368.983 506.224 425.014 506.224 425.014V350.309Z" fill="white"/>
<path d="M478.277 419.341C477.017 419.129 464.921 417.467 454.61 412.812C446.624 409.209 439.703 403.805 439.703 395.898" fill="white"/>
<path d="M457.028 395.91C457.028 395.91 445.242 409.413 454.609 412.823L457.028 395.91Z" fill="white"/>
<path d="M449.205 425.103C450.883 422.812 459.61 427.408 465.311 416.594L449.205 425.103Z" fill="white"/>
<path d="M502.496 375.031C499.518 372.833 491.714 375.031 490.568 357.449L502.496 375.031Z" fill="white"/>
<path d="M503.799 391.508C503.799 391.508 516.846 386.873 516.846 376.84L503.799 391.508Z" fill="white"/>
<path d="M531.838 420.851C531.838 420.851 538.644 403.587 541.441 395.898L531.838 420.851Z" fill="white"/>
<path d="M552.973 404.356C552.973 404.356 560.446 410.177 569.389 400.84L552.973 404.356Z" fill="white"/>
<path d="M552.971 395.907C552.971 395.907 548.146 393.847 550.383 382L552.971 395.907Z" fill="white"/>
<path d="M475.501 442.265C470.622 441.603 465.925 440.179 461.295 438.848C442.278 433.385 420.187 424.061 412.612 404.459C410.717 399.395 410.12 393.949 410.873 388.605C411.626 383.259 413.707 378.179 416.932 373.811C420.349 369.154 425.152 365.653 430.68 363.792C442.709 359.971 456.019 365.924 464.941 374.732C473.864 383.539 479.605 394.877 486.594 405.234C480.272 391.327 473.857 377.016 472.987 361.812C472.314 349.958 475.589 337.104 483.905 328.197C491.56 319.999 509.459 313.582 519.999 319.589C526.954 323.562 529.73 332.012 530.923 339.826C534.198 361.209 529.993 382.937 525.808 404.168C528.618 392.817 531.637 381.361 537.366 371.123C543.094 360.885 551.875 351.839 563.122 348.044C571 345.395 580.354 345.68 586.952 350.693C593.104 355.329 595.854 363.229 596.703 370.818C598.118 383.546 595.254 396.539 589.829 408.167C569.949 450.742 515.275 447.523 475.501 442.265Z" stroke="#CCDDE2" stroke-width="2.85291" stroke-miterlimit="10"/>
<path d="M519.641 420.615C519.641 420.615 549.798 428.846 560.446 387.656" stroke="#CCDDE2" stroke-width="2.85291" stroke-miterlimit="10"/>
<path d="M506.224 350.309C497.841 368.983 506.224 425.014 506.224 425.014" stroke="#CCDDE2" stroke-width="2.85291" stroke-miterlimit="10"/>
<path d="M478.277 419.341C477.017 419.129 464.921 417.467 454.61 412.812C446.624 409.209 439.703 403.805 439.703 395.898" stroke="#CCDDE2" stroke-width="2.85291" stroke-miterlimit="10"/>
<path d="M457.028 395.91C457.028 395.91 445.242 409.413 454.609 412.823" stroke="#CCDDE2" stroke-width="2.85291" stroke-miterlimit="10"/>
<path d="M449.205 425.103C450.883 422.812 459.61 427.408 465.311 416.594" stroke="#CCDDE2" stroke-width="2.85291" stroke-miterlimit="10"/>
<path d="M502.496 375.031C499.518 372.833 491.714 375.031 490.568 357.449" stroke="#CCDDE2" stroke-width="2.85291" stroke-miterlimit="10"/>
<path d="M503.799 391.508C503.799 391.508 516.846 386.873 516.846 376.84" stroke="#CCDDE2" stroke-width="2.85291" stroke-miterlimit="10"/>
<path d="M531.838 420.851C531.838 420.851 538.644 403.587 541.441 395.898" stroke="#CCDDE2" stroke-width="2.85291" stroke-miterlimit="10"/>
<path d="M552.973 404.356C552.973 404.356 560.446 410.177 569.389 400.84" stroke="#CCDDE2" stroke-width="2.85291" stroke-miterlimit="10"/>
<path d="M552.971 395.907C552.971 395.907 548.146 393.847 550.383 382" stroke="#CCDDE2" stroke-width="2.85291" stroke-miterlimit="10"/>
<path d="M555.027 292.887C561.053 297.988 566.431 303.785 571.046 310.151C579.53 321.548 584.329 335.189 584.821 349.301" stroke="#CCDDE2" stroke-width="2.85291" stroke-miterlimit="10"/>
<path d="M344.857 59.4233C356.988 52.2448 369.637 45.8676 383.088 41.3644C416.628 30.1067 454.023 32.6033 480.595 57.3108C503.629 78.7072 514.52 110.494 516.744 140.956C516.744 141.4 516.818 141.87 516.838 142.34C517.856 158.035 517.02 175.365 516.905 192.709" stroke="#CCDDE2" stroke-width="2.85291" stroke-miterlimit="10"/>
<path d="M80.4505 191.746C83.4898 172.681 79.7766 154.748 77.7549 135.126C72.5523 84.0025 89.0967 22.833 149.027 15.1844C181.59 11.0124 208.021 22.9655 230.037 45.8916C234.984 51.0371 239.93 57.0831 245.166 62.9239" stroke="#CCDDE2" stroke-width="2.85291" stroke-miterlimit="10"/>
<path d="M57.0791 360.582C57.0791 360.582 11.6915 340.941 16.2336 304.035C17.5005 293.618 22.4941 284.301 28.8019 275.738" stroke="#CCDDE2" stroke-width="2.85291" stroke-miterlimit="10"/>
<path d="M467.017 385.189C465.292 383.966 463.495 382.805 461.626 381.706C442.986 370.865 417.586 366.66 396.291 365.402C394.99 365.309 393.71 365.243 392.443 365.19C390.764 365.118 389.122 364.686 387.631 363.925C386.086 363.159 384.743 362.05 383.709 360.687C382.664 356.653 381.409 352.675 379.949 348.767L376.956 335.523C375.84 331.692 374.965 327.797 374.335 323.861C371.235 303.948 368.944 279.201 368.135 269.936C368.232 269.977 368.334 270.006 368.438 270.022L377.691 272.936C377.725 272.933 377.758 272.933 377.792 272.936L381.074 273.883C393.797 277.432 407.147 280.095 420.403 280.379C432.897 280.638 446.604 278.624 457.279 271.83C458.177 271.274 459.049 270.678 459.894 270.042C468.129 263.95 473.85 254.599 477.092 245.109C483.056 227.557 484.344 208.796 480.832 190.615C479.836 185.609 478.436 180.689 476.647 175.901C471.93 163.153 465.117 151.206 459.267 138.816C457.919 135.929 455.992 132.903 455.756 129.697C455.473 125.876 457.468 122.201 458.095 118.486C458.825 114.022 459.163 109.504 459.105 104.983C459.097 99.6206 458.052 94.3082 456.026 89.3283C454.28 85.1431 451.18 78.1235 445.674 78.3818C443.909 72.8324 440.957 66.4088 435.761 65.687C434.413 65.4837 433.037 65.8121 431.934 66.6008C431.553 66.0638 431.141 65.5486 430.7 65.0579C428.53 62.6606 424.426 60.5018 421.131 61.7467C414.594 64.2897 417.586 73.1304 420.828 79.8387C419.159 79.4857 417.447 79.3744 415.746 79.5075C411.939 79.8387 407.531 81.3485 406.056 84.951C405.254 86.9377 405.537 90.5203 407.585 91.6461C410.187 93.0434 413.381 92.1163 415.982 93.4275C418.887 94.8976 420.026 98.8378 419.601 101.818C419.519 102.986 419.044 104.095 418.253 104.97C413.657 109.486 410.503 97.0233 408.758 94.9704C406.386 92.1692 402.908 92.6791 400.435 95.0433C395.549 99.6788 397.672 109.016 399.721 114.619C401.945 120.751 404.836 127.201 409.452 131.975C417.128 139.889 417.97 152.504 419.999 162.709C420.834 166.927 421.636 171.186 422.283 175.437C423.564 183.688 424.305 191.993 423.631 200.323C423.461 202.61 422.811 204.838 421.723 206.866C420.634 208.894 419.131 210.679 417.307 212.11C415.484 213.54 413.378 214.584 411.125 215.177C408.871 215.77 406.516 215.898 404.209 215.554C398.717 214.733 392.288 213.753 385.441 212.7C385.441 212.7 385.495 212.647 385.528 212.634C376.195 209.515 367.94 209.131 359.725 208.707C336.549 205.184 315.739 201.873 315.739 201.873C315.265 201.787 314.837 201.542 314.527 201.179C314.217 200.817 314.045 200.36 314.041 199.886L313.758 174.603C315.341 176.51 318.778 176.775 320.881 175.669C321.716 175.25 322.404 174.593 322.853 173.783C323.301 172.974 323.49 172.05 323.394 171.133C324.758 171.121 326.097 170.783 327.296 170.146C327.652 169.951 327.992 169.729 328.314 169.484C328.979 168.898 329.516 168.184 329.89 167.387C330.264 166.59 330.468 165.726 330.491 164.848C330.52 164.363 330.495 163.877 330.417 163.398C330.417 163.219 330.363 163.047 330.329 162.855C330.255 162.484 330.167 162.12 330.059 161.729C330.005 161.504 329.938 161.279 329.864 161.067C329.689 160.405 329.493 159.742 329.345 159.08C329.423 159.09 329.503 159.09 329.581 159.08C330.246 159.043 330.906 158.95 331.555 158.802C332.172 158.658 332.775 158.458 333.355 158.206C333.68 158.064 333.998 157.905 334.305 157.729C334.358 157.711 334.406 157.682 334.447 157.643C334.968 157.329 335.461 156.972 335.922 156.577C336.079 156.451 336.227 156.316 336.367 156.173C336.63 155.93 336.88 155.674 337.115 155.405C337.416 155.058 337.697 154.696 337.958 154.319C338.085 154.159 338.197 153.988 338.294 153.809C339.23 152.335 339.913 150.72 340.316 149.028C340.35 148.869 340.39 148.71 340.424 148.557C341.772 142.253 339.75 135.055 334.116 132.704C332.991 132.234 329.001 131.777 329.001 130.115C329.003 129.996 329.022 129.877 329.055 129.764C329.049 129.74 329.049 129.715 329.055 129.691C329.162 129.444 329.315 129.219 329.507 129.029C329.594 128.923 329.716 128.817 329.823 128.711C330.059 128.505 330.322 128.313 330.572 128.115C330.828 127.948 331.073 127.768 331.306 127.572C331.405 127.491 331.499 127.404 331.589 127.313C331.764 127.121 331.946 126.929 332.108 126.737C332.268 126.548 332.417 126.349 332.553 126.141C332.694 125.929 332.836 125.717 332.964 125.479C333.105 125.27 333.224 125.049 333.321 124.817C333.524 124.424 333.691 124.014 333.82 123.592C334.047 122.898 334.19 122.18 334.244 121.453C334.244 121.194 334.244 120.93 334.244 120.665C334.244 114.85 329.419 108.831 323.32 108.195C322.334 108.089 321.336 108.204 320.402 108.533C319.943 108.689 319.493 108.87 319.054 109.076L318.381 109.387C317.922 109.599 317.457 109.824 316.979 110.049C316.575 110.238 316.138 110.346 315.692 110.367C315.589 110.364 315.488 110.351 315.388 110.327L315.193 110.274C315.052 110.244 314.922 110.172 314.822 110.069C314.704 109.984 314.605 109.876 314.533 109.751C314.472 109.63 314.429 109.5 314.405 109.367C314.4 109.359 314.397 109.35 314.397 109.341C314.397 109.331 314.4 109.322 314.405 109.314C314.371 109.16 314.355 109.002 314.357 108.844C314.357 108.517 314.405 108.191 314.499 107.877C314.689 107.193 314.785 106.487 314.782 105.778C314.781 105.521 314.763 105.265 314.728 105.01C314.694 104.656 314.64 104.304 314.566 103.957C313.907 101.395 312.339 99.1484 310.145 97.6193C303.966 93.3281 292.381 93.3083 289.187 101.262C289.12 101.381 289.086 101.507 289.032 101.626C288.621 101.156 288.21 100.666 287.799 100.175C287.514 99.996 287.217 99.8365 286.909 99.6987C282.63 97.8644 276.504 98.6524 273.384 102.242C270.796 105.222 269.947 109.824 272.245 113.201C270.957 111.566 269.209 110.337 267.218 109.665C267.456 110.32 267.772 110.945 268.161 111.526C267.979 111.282 267.783 111.048 267.575 110.824C267.413 110.645 267.251 110.486 267.09 110.334C266.928 110.182 266.699 109.963 266.503 109.804C266.308 109.645 266.092 109.473 265.883 109.314C261.874 106.427 255.97 106.129 252.23 109.738C249.305 112.559 248.699 116.46 249.737 120.241C250.774 124.022 253.261 126.651 255.128 129.909C248.8 131.472 243.739 138.366 245.734 144.829C246.15 146.166 246.88 147.389 247.865 148.398C248.848 149.408 250.06 150.177 251.401 150.643C251.882 150.762 252.37 150.844 252.864 150.888C253.029 150.905 253.188 150.955 253.332 151.035C253.477 151.115 253.603 151.223 253.703 151.353C253.802 151.482 253.874 151.631 253.913 151.79C253.952 151.948 253.957 152.112 253.928 152.272C253.828 152.707 253.776 153.151 253.773 153.597C253.777 154.664 254.061 155.712 254.597 156.64C255.133 157.568 255.903 158.344 256.833 158.895C256.971 158.97 257.092 159.074 257.188 159.197C257.284 159.32 257.354 159.462 257.392 159.612C257.431 159.763 257.437 159.92 257.412 160.073C257.387 160.226 257.33 160.373 257.244 160.504C256.307 161.813 255.757 163.351 255.653 164.949C255.55 166.547 255.897 168.141 256.658 169.556C258.74 173.656 263.841 177.212 268.653 175.808C270.201 175.347 271.541 174.376 272.447 173.06C272.544 172.96 272.628 172.849 272.697 172.729C272.714 172.689 272.739 172.653 272.771 172.623C273.463 171.606 273.924 170.454 274.119 169.245C275.304 171.092 276.631 172.848 278.088 174.497L278.964 175.457L276.302 191.589L275.911 194.496C275.767 195.502 275.257 196.423 274.478 197.089C273.698 197.756 272.699 198.123 271.665 198.125C271.079 198.125 270.473 198.125 269.886 198.125C268.694 198.125 267.514 198.158 266.342 198.191C262.777 198.277 259.225 198.436 255.68 198.648C252.985 198.82 250.35 199.012 247.701 199.244C246.354 199.35 245.06 199.469 243.725 199.608C242.391 199.747 241.07 199.873 239.749 200.012C237.168 200.297 234.567 200.588 231.979 200.926C228.859 201.33 225.759 201.747 222.639 202.184C217.76 202.886 212.894 203.654 208.008 204.482C203.251 205.29 198.513 206.131 193.755 206.985C187.07 208.197 180.318 209.21 173.538 210.296C171.758 210.579 169.937 210.485 168.197 210.021C166.457 209.557 164.837 208.733 163.446 207.604C162.056 206.477 160.927 205.069 160.134 203.478C159.34 201.887 158.902 200.148 158.847 198.376C158.086 176.523 170.681 136.664 170.681 136.664C170.971 133.565 174.724 131.366 176.921 129.605C183.209 124.724 186.922 115.983 189.092 108.625C190.628 103.374 192.084 95.8777 187.562 91.5732C185.082 89.2091 181.605 88.6992 179.239 91.5004C177.494 93.5665 174.34 106.016 169.737 101.5C168.946 100.624 168.472 99.5159 168.39 98.3478C167.992 95.3744 169.063 91.4342 172.002 89.9574C174.603 88.633 177.797 89.5733 180.399 88.176C182.42 87.0503 182.73 83.4478 181.928 81.481C180.452 77.8785 176.052 76.3686 172.238 76.0375C170.537 75.9044 168.825 76.0157 167.156 76.3686C170.398 69.6603 173.397 60.8197 166.853 58.2833C163.558 57.0053 159.44 59.1575 157.284 61.5547C156.846 62.0461 156.436 62.5613 156.057 63.0977C154.95 62.3116 153.573 61.9832 152.223 62.1838C147 62.9056 144.082 69.3292 142.316 74.8853C136.864 74.6204 133.778 81.5075 132.012 85.6861C130.011 90.4991 128.949 95.6393 128.879 100.838C128.71 106.368 129.108 111.901 130.065 117.354C130.509 119.704 131.311 121.943 131.884 124.241C132.511 126.744 131.83 129.227 130.907 131.578C127.288 140.578 122.187 149.001 118.359 157.934C114.208 167.389 110.881 177.171 108.412 187.178C103.654 206.932 102.677 227.878 108.237 247.579C118.75 284.81 172.015 272.585 202.53 262.148C215.287 257.791 224.095 253.725 224.095 253.725C224.095 253.725 224.162 256.612 224.162 261.499V262.162C224.128 268.784 223.542 321.616 214.485 360.409L214.181 360.919C214.256 360.866 214.397 360.866 214.485 361.336C213.987 362.396 213.191 363.292 212.189 363.919C211.188 364.546 210.025 364.877 208.837 364.872C187.151 364.786 95.8302 367.812 113.143 425.797C116.384 436.69 124.849 443.677 136.73 447.809C146.164 451.12 157.762 452.557 170.607 452.663H170.694C145.585 457.338 139.742 494.045 167.756 499.595C178.539 501.727 187.077 494.866 196.768 491.939C202.306 490.331 208.072 489.61 213.844 489.807C217.611 489.896 221.367 490.241 225.085 490.84C265.796 497.39 307.108 499.597 348.302 497.423C376.154 495.919 404.546 492.482 430.977 483.324C450.897 476.41 472.759 464.311 482.571 445.577C486.047 438.984 487.844 431.66 487.807 424.234C487.78 406.586 479.478 394.03 467.017 385.189Z" fill="white"/>
<path d="M46.7832 446.822L45.7656 445.875" stroke="#CCDDE2" stroke-width="2.85291" stroke-miterlimit="10"/>
<path d="M379.97 347.806L376.971 334.529C375.856 330.698 374.983 326.803 374.356 322.867C371.256 302.954 368.965 278.213 368.15 268.949L377.813 271.975L374.444 264.605C374.444 264.605 363.345 227.898 385.55 211.733C369.491 206.362 356.626 209.124 341.598 205.727C335.809 204.402 329.697 203.243 322.944 202.157L318.058 201.316C317.863 214.362 308.624 217.322 301.022 218.739C282.308 222.262 269.348 208.846 269.888 197.164C249.111 197.396 228.577 200.091 208.016 203.521C210.672 211.177 216.265 234.116 200.529 261.241L202.551 261.174C215.308 256.81 224.116 252.751 224.116 252.751C224.116 252.751 224.19 255.638 224.19 260.525V261.188C224.156 267.77 223.57 320.642 214.513 359.428C213.839 360.693 214.365 359.137 214.513 360.541C213.963 361.619 213.586 362.773 213.394 363.965L213.832 362.249C211.393 365.686 217.498 369.852 226.32 371.951C249.381 377.487 376.499 387.182 383.676 363.965C384.099 362.58 384.113 361.106 383.717 359.713C382.674 355.684 381.424 351.71 379.97 347.806Z" fill="#353642"/>
<path d="M213.837 488.809C208.072 488.619 202.313 489.341 196.781 490.948C187.083 493.868 178.531 500.736 167.762 498.597C139.748 493.047 145.597 456.34 170.707 451.665C173.113 451.612 175.519 451.599 177.904 451.599H178.066C189.63 451.599 200.898 451.897 210.144 448.758C209.275 449.546 186.746 469.181 213.837 488.809Z" fill="#3FBDF1"/>
<path d="M318.037 201.287V201.32C317.841 214.366 308.602 217.326 301 218.743C282.286 222.266 269.327 208.85 269.866 197.168" stroke="black" stroke-width="2.85291" stroke-miterlimit="10"/>
<path d="M170.727 451.67C145.617 456.345 139.768 493.052 167.782 498.601C178.564 500.74 187.103 493.873 196.8 490.953C202.336 489.345 208.1 488.623 213.87 488.814C217.628 488.915 221.375 489.271 225.084 489.88C265.793 496.443 307.106 498.663 348.301 496.502C376.153 494.992 404.538 491.562 430.969 482.403C450.896 475.483 472.751 463.384 482.563 444.657C486.041 438.062 487.839 430.735 487.799 423.307C487.799 405.638 479.476 393.083 467.043 384.235C465.311 383.01 463.511 381.858 461.651 380.752C443.011 369.912 417.618 365.706 396.323 364.448C395.022 364.362 393.735 364.289 392.475 364.236C390.796 364.169 389.154 363.739 387.663 362.978C386.116 362.216 384.772 361.107 383.741 359.74C382.738 358.445 382.032 356.952 381.672 355.363L379.981 347.813L376.982 334.536L374.354 322.867C371.254 302.954 368.963 278.214 368.147 268.949" stroke="black" stroke-width="2.85291" stroke-miterlimit="10"/>
<path d="M405.131 433.859C396.822 452.527 376.275 446.137 353.699 432.7C339.689 424.363 327.734 423.178 320.678 423.429C330.625 422.555 339.318 419.542 341.764 408.49C343.739 399.51 338.59 391.272 329.681 388.623C351.098 387.696 373.074 389.285 390.501 402.53C390.515 402.53 413.454 415.171 405.131 433.859Z" fill="#3FBDF1"/>
<path d="M329.54 158.038C329.463 158.048 329.387 158.048 329.31 158.038C329.519 159.071 329.917 160.177 330.18 161.277C330.391 162.108 330.482 162.963 330.449 163.82C330.166 167.826 327.275 169.998 323.353 170.104C323.452 171.023 323.266 171.951 322.819 172.764C322.371 173.577 321.683 174.238 320.846 174.66C318.744 175.746 315.3 175.501 313.716 173.587C311.843 171.369 312.773 168.614 313.912 166.184C314.323 165.329 314.734 164.522 315.071 163.787C315.482 162.873 315.839 161.965 316.156 161.038C317.277 157.607 318.146 154.102 318.757 150.549C319.502 146.959 319.996 143.324 320.233 139.668C319.984 138.781 320.145 137.496 319.788 136.569C319.269 135.138 318.33 133.89 317.093 132.98C314.532 131.126 311.122 131.245 308.399 129.603C305.934 128.094 303.989 125.89 302.819 123.278C302.59 122.735 302.374 122.033 302.051 121.424C301.907 121.093 301.688 120.799 301.411 120.563C300.184 119.55 299.47 121.338 298.715 122.033C297.941 122.735 297.024 123.268 296.025 123.594C295.025 123.921 293.967 124.034 292.92 123.927C292.128 123.825 291.357 123.601 290.635 123.265C290.105 122.982 289.609 122.64 289.159 122.245C288.624 121.733 288.001 121.319 287.319 121.02C286.039 120.55 285.972 122.629 285.79 123.351C285.668 123.975 285.404 124.564 285.017 125.073C284.631 125.582 284.132 125.999 283.559 126.292C282.866 126.626 282.107 126.805 281.335 126.815C280.436 126.85 279.537 126.731 278.68 126.464C277.852 126.222 277.064 125.863 276.341 125.397C276.211 125.311 276.06 125.263 275.904 125.258C275.748 125.252 275.593 125.29 275.458 125.366C275.323 125.443 275.211 125.556 275.138 125.691C275.064 125.826 275.031 125.979 275.041 126.133C275.29 132.98 268.774 135.364 266.098 136.066C265.199 147.367 268.009 158.654 274.118 168.27C273.892 169.661 273.315 170.975 272.44 172.091C268.039 173.177 262.958 171.998 261.051 168.27C259.029 164.296 259.305 158.793 262.446 155.959C260.269 155.628 259.662 152.469 260.909 150.615C261.017 150.436 261.064 150.33 260.997 150.158C260.727 149.436 257.526 148.834 256.65 148.569C255.4 148.13 254.271 147.411 253.354 146.468C252.437 145.525 251.756 144.385 251.367 143.138C249.513 137.132 254.217 130.722 260.094 129.271C258.348 126.239 256.05 123.788 255.073 120.285C254.096 116.782 254.648 113.14 257.371 110.491C258.478 109.456 259.831 108.709 261.307 108.318C262.783 107.927 264.335 107.905 265.822 108.253C266.688 108.872 267.457 109.615 268.1 110.458C267.704 109.883 267.387 109.259 267.156 108.604C269.15 109.268 270.9 110.499 272.183 112.14C269.885 108.762 270.741 104.153 273.322 101.173C276.443 97.5842 282.575 96.7961 286.848 98.6371C287.157 98.7735 287.456 98.9311 287.744 99.1073C288.148 99.604 288.559 100.094 288.97 100.564C289.016 100.437 289.07 100.313 289.132 100.193C290 101.069 290.82 101.989 291.592 102.948C294.368 95.1869 305.4 95.1671 311.23 99.2132C312.602 100.175 313.726 101.441 314.511 102.908C314.807 104.198 314.782 105.538 314.437 106.816C314.08 108.041 314.363 108.968 315.165 109.233C315.768 109.377 316.404 109.296 316.951 109.008C319.087 108.061 320.853 106.902 323.333 107.167C331.42 108.008 337.316 118.338 332.525 125.08C332.241 125.498 331.918 125.891 331.561 126.252C330.887 126.914 329.371 127.689 329.034 128.636C329.025 128.659 329.025 128.685 329.034 128.709C328.428 130.695 332.902 131.139 334.095 131.649C344.662 136.026 342.431 157.376 329.54 158.038Z" fill="#3FBDF1"/>
<path d="M145.833 104.194C143.32 98.9355 145.159 91.5649 148.023 85.9957C150.214 81.6714 148.468 74.7379 142.875 73.9631C137.066 73.1949 133.818 80.3932 132.005 84.7374C130 89.5518 128.934 94.6939 128.864 99.8957C128.715 105.427 129.128 110.96 130.098 116.412C130.542 118.756 131.344 121.001 131.91 123.292C132.537 125.795 131.856 128.285 130.933 130.629C127.314 139.629 122.22 148.052 118.385 156.986C114.241 166.442 110.916 176.224 108.445 186.23C103.687 205.984 102.703 226.93 108.263 246.631C118.776 283.861 172.048 271.636 202.556 261.2C215.313 256.836 224.121 252.776 224.121 252.776C224.121 252.776 224.195 255.664 224.195 260.551C224.195 260.776 224.195 261.008 224.195 261.213C224.235 280.861 223.433 330.23 214.821 359.56C214.448 360.824 213.665 361.935 212.591 362.723C211.517 363.51 210.211 363.932 208.87 363.924C187.184 363.838 95.8699 366.864 113.176 424.815C119.025 444.39 141.675 451.43 170.613 451.675H170.741C173.093 451.675 175.499 451.675 177.938 451.608H178.1C188.849 451.242 199.57 450.289 210.211 448.754C247.91 443.536 288.02 432.397 313.932 424.371C315.426 423.984 316.953 423.733 318.494 423.623C319.135 423.55 319.842 423.497 320.637 423.464H320.705C327.747 423.186 339.702 424.371 353.726 432.735C376.302 446.172 396.856 452.562 405.159 433.894C413.461 415.226 390.515 402.531 390.515 402.531C373.087 389.287 351.111 387.717 329.695 388.624C323.084 388.909 316.506 389.452 310.151 389.949C284.718 391.94 259.28 393.926 233.838 395.909L200.507 398.558" stroke="black" stroke-width="2.85291" stroke-miterlimit="10"/>
<path d="M154.896 100.685C154.896 100.685 151.264 93.473 155.759 82.1954C157.612 77.5598 159.748 71.9515 158.872 66.8722C158.598 64.9915 157.581 63.2929 156.042 62.1433C154.935 61.3566 153.557 61.0301 152.207 61.2361C146.991 61.9513 144.066 68.3821 142.301 73.9315" stroke="black" stroke-width="2.85291" stroke-miterlimit="10"/>
<path d="M162.486 96.499C162.486 96.499 159.036 90.7576 163.739 81.9302C164.528 80.46 165.862 78.1091 167.109 75.4338C170.357 68.7255 173.349 59.8848 166.806 57.3419C163.51 56.0638 159.393 58.216 157.236 60.6199C156.798 61.1086 156.389 61.6218 156.01 62.1562" stroke="black" stroke-width="2.85291" stroke-miterlimit="10"/>
<path d="M167.13 75.3913C168.798 75.0357 170.511 74.9238 172.211 75.0602C176.026 75.3913 180.426 76.8946 181.909 80.5037C182.711 82.4903 182.421 86.073 180.372 87.1921C177.771 88.596 174.584 87.6689 171.982 88.9801C169.078 90.4503 167.939 94.3905 168.363 97.3705C168.446 98.5386 168.919 99.6472 169.711 100.523C174.307 105.039 177.461 92.576 179.207 90.5231C181.579 87.7219 185.049 88.2252 187.529 90.5893C192.058 94.8938 190.596 102.383 189.052 107.642C186.889 114.999 183.176 123.74 176.922 128.614C174.685 130.349 170.965 132.587 170.682 135.687C170.682 135.687 158.086 175.519 158.841 197.392C158.896 199.163 159.334 200.902 160.127 202.493C160.92 204.084 162.048 205.49 163.439 206.618C164.828 207.746 166.447 208.57 168.186 209.035C169.926 209.499 171.746 209.594 173.526 209.312C180.265 208.233 187.044 207.22 193.743 206.001C198.5 205.147 203.238 204.306 207.996 203.498C229.15 199.962 250.27 197.214 271.653 197.121C272.686 197.123 273.685 196.757 274.466 196.091C275.246 195.426 275.755 194.505 275.898 193.499L276.303 190.618L278.965 174.453" stroke="black" stroke-width="2.85291" stroke-miterlimit="10"/>
<path d="M442.144 107.701C444.658 102.442 442.818 95.0719 439.954 89.5027C437.744 85.1783 439.509 78.2449 445.103 77.4701C445.298 77.4701 445.494 77.437 445.676 77.437C451.181 77.1721 454.281 84.1983 456.027 88.3835C458.056 93.3627 459.103 98.6751 459.113 104.038C459.165 108.56 458.825 113.077 458.096 117.541C457.476 121.25 455.474 124.932 455.764 128.746C455.993 131.951 457.92 134.984 459.275 137.871C465.118 150.235 471.958 162.175 476.648 174.956C478.437 179.742 479.836 184.66 480.833 189.664C484.355 207.839 483.079 226.599 477.127 244.151C473.878 253.648 468.164 262.998 459.929 269.091C459.075 269.722 458.201 270.318 457.307 270.879C446.632 277.673 432.925 279.686 420.438 279.421C407.175 279.143 393.832 276.481 381.102 272.925C378.878 272.298 376.663 271.636 374.457 270.938C372.139 270.216 369.841 269.481 367.543 268.713C365.137 267.892 362.731 267.064 360.346 266.19" stroke="black" stroke-width="2.85291" stroke-miterlimit="10"/>
<path d="M445.674 77.4348C443.909 71.8853 440.957 65.4552 435.768 64.74C434.418 64.534 433.04 64.8605 431.933 65.6472C430.394 66.7968 429.377 68.4954 429.103 70.3755C428.227 75.4547 430.363 81.0571 432.216 85.6993C436.711 96.9571 433.072 104.195 433.072 104.195" stroke="black" stroke-width="2.85291" stroke-miterlimit="10"/>
<path d="M431.933 65.6446C431.556 65.1015 431.131 64.5983 430.707 64.1016C428.53 61.7044 424.433 59.5521 421.131 60.8302C414.594 63.3665 417.586 72.2138 420.834 78.9221C422.115 81.571 423.449 83.9484 424.204 85.4185C428.921 94.2592 425.45 99.9874 425.45 99.9874" stroke="black" stroke-width="2.85291" stroke-miterlimit="10"/>
<path d="M420.832 78.9217C419.164 78.5667 417.453 78.4528 415.751 78.584C411.937 78.9217 407.536 80.4249 406.054 84.034C405.252 86.0207 405.542 89.6033 407.59 90.7225C410.191 92.1264 413.379 91.1927 415.98 92.5105C418.885 93.9806 420.024 97.9208 419.599 100.901C419.517 102.069 419.043 103.178 418.251 104.053C413.655 108.569 410.501 96.1064 408.756 94.0535C406.384 91.2456 402.913 91.7556 400.433 94.1197C395.548 98.7552 397.67 108.093 399.719 113.702C401.95 119.827 404.834 126.284 409.45 131.052C417.133 138.998 417.968 151.581 420.003 161.786C420.839 166.011 421.641 170.262 422.281 174.52C423.562 182.765 424.303 191.076 423.629 199.406C423.458 201.693 422.807 203.921 421.718 205.949C420.629 207.977 419.125 209.763 417.301 211.193C415.477 212.623 413.372 213.667 411.117 214.26C408.862 214.853 406.508 214.981 404.2 214.637C374.063 210.101 315.737 200.89 315.737 200.89C315.26 200.809 314.827 200.565 314.514 200.202C314.2 199.839 314.028 199.379 314.025 198.903L313.742 173.613" stroke="black" stroke-width="2.85291" stroke-miterlimit="10"/>
<path d="M266.071 136.047C264.837 149.073 269.44 163.801 278.066 173.509C294.159 191.594 307.718 173.509 307.718 173.509" stroke="black" stroke-width="2.85291" stroke-miterlimit="10"/>
<path d="M320.408 140.086C319.936 139.225 320.213 137.669 319.808 136.576C319.286 135.144 318.349 133.895 317.113 132.98C314.538 131.133 311.135 131.245 308.419 129.616C305.953 128.1 304.005 125.892 302.826 123.279C302.448 122.444 302.152 121.173 301.431 120.57C300.198 119.557 299.483 121.338 298.735 122.04C297.668 123.018 296.326 123.657 294.885 123.877C293.442 124.096 291.967 123.886 290.648 123.272C289.435 122.683 288.593 121.497 287.326 121.027C286.059 120.557 285.978 122.63 285.79 123.358C285.669 123.981 285.407 124.569 285.023 125.08C284.639 125.59 284.143 126.008 283.572 126.305C281.342 127.384 278.296 126.676 276.355 125.398C276.225 125.309 276.072 125.259 275.914 125.253C275.756 125.247 275.599 125.285 275.463 125.362C275.326 125.44 275.214 125.554 275.141 125.692C275.067 125.829 275.035 125.984 275.048 126.139C275.351 134.748 264.973 136.291 264.973 136.291" stroke="black" stroke-width="2.85291" stroke-miterlimit="10"/>
<path d="M280.715 154.994C285.903 154.994 290.109 150.861 290.109 145.763C290.109 140.664 285.903 136.531 280.715 136.531C275.526 136.531 271.32 140.664 271.32 145.763C271.32 150.861 275.526 154.994 280.715 154.994Z" stroke="black" stroke-width="2.85291" stroke-miterlimit="10"/>
<path d="M305.064 154.17C310.253 154.17 314.458 150.037 314.458 144.938C314.458 139.84 310.253 135.707 305.064 135.707C299.876 135.707 295.67 139.84 295.67 144.938C295.67 150.037 299.876 154.17 305.064 154.17Z" stroke="black" stroke-width="2.85291" stroke-miterlimit="10"/>
<path d="M276.787 146.688C276.787 146.688 280.574 150.959 284.47 146.688" stroke="black" stroke-width="2.85291" stroke-miterlimit="10"/>
<path d="M301.236 146.688C301.236 146.688 305.024 150.959 308.926 146.688" stroke="black" stroke-width="2.85291" stroke-miterlimit="10"/>
<path d="M294.018 167.05C295.845 167.05 297.327 165.594 297.327 163.798C297.327 162.002 295.845 160.547 294.018 160.547C292.19 160.547 290.709 162.002 290.709 163.798C290.709 165.594 292.19 167.05 294.018 167.05Z" stroke="black" stroke-width="2.85291" stroke-miterlimit="10"/>
<path d="M290.109 145.764C290.109 145.764 292.239 142.354 295.669 144.943" stroke="black" stroke-width="2.85291" stroke-miterlimit="10"/>
<path d="M285.789 132.058C285.789 132.058 276.038 124.734 267.863 131.641" stroke="black" stroke-width="2.85291" stroke-miterlimit="10"/>
<path d="M314.322 128.221C314.322 128.221 302.738 124.248 297.145 133.287" stroke="black" stroke-width="2.85291" stroke-miterlimit="10"/>
<path d="M273.808 167.95C273.786 169.485 273.273 170.973 272.341 172.206C271.41 173.439 270.108 174.352 268.619 174.817C263.808 176.214 258.713 172.665 256.624 168.565C255.862 167.149 255.514 165.553 255.62 163.954C255.724 162.355 256.277 160.815 257.217 159.506C257.301 159.375 257.357 159.229 257.381 159.076C257.405 158.923 257.398 158.766 257.359 158.617C257.32 158.467 257.25 158.326 257.153 158.204C257.058 158.081 256.937 157.979 256.799 157.904C255.864 157.351 255.09 156.569 254.554 155.635C254.018 154.7 253.737 153.646 253.739 152.573C253.742 152.128 253.791 151.683 253.888 151.248C253.919 151.087 253.915 150.922 253.877 150.763C253.839 150.603 253.768 150.454 253.667 150.322C253.567 150.192 253.44 150.083 253.295 150.003C253.15 149.923 252.989 149.874 252.823 149.858C252.332 149.814 251.846 149.734 251.367 149.619C250.027 149.152 248.816 148.383 247.831 147.373C246.847 146.364 246.118 145.141 245.7 143.805C243.678 137.342 248.766 130.441 255.094 128.885C253.207 125.627 250.707 122.998 249.703 119.217C248.699 115.435 249.278 111.528 252.196 108.707C256.745 104.33 264.461 105.694 268.127 110.495C265.654 106.853 266.577 101.886 269.361 98.6943C272.73 94.8402 279.301 93.9992 283.903 95.9594C286.094 96.9063 287.502 98.8665 288.998 100.595C291.99 92.2774 303.824 92.2244 310.118 96.5819C313.393 98.8798 315.51 103.045 314.465 106.846C313.912 108.773 314.93 109.926 316.979 109.038C319.027 108.151 320.881 106.932 323.361 107.197C331.946 108.091 338.045 119.647 331.589 126.283C330.915 126.984 329.399 127.72 329.062 128.667C328.327 130.653 332.89 131.17 334.103 131.68C344.764 136.077 342.425 157.652 329.385 158.089C329.776 159.923 330.666 161.956 330.524 163.85C330.241 167.857 327.35 170.029 323.428 170.155C323.524 171.071 323.336 171.995 322.889 172.804C322.441 173.614 321.756 174.272 320.921 174.691C318.818 175.79 315.375 175.532 313.791 173.618C311.257 170.612 313.858 166.671 315.139 163.797C317.026 159.592 317.956 155.056 318.812 150.553C319.595 146.822 320.1 143.039 320.321 139.236V139.077" stroke="black" stroke-width="2.85291" stroke-miterlimit="10"/>
<path d="M0 446.82H136.958" stroke="black" stroke-width="2.85291" stroke-miterlimit="10"/>
<path d="M481.586 446.82H606.514" stroke="black" stroke-width="2.85291" stroke-miterlimit="10"/>
</svg>
